<svg id="Group_2956" data-name="Group 2956" xmlns="http://www.w3.org/2000/svg" width="80" height="80" viewBox="0 0 80 80">
  <g id="Group_1608" data-name="Group 1608" transform="translate(0)">
    <g id="Path_1333" data-name="Path 1333" fill="none">
      <path d="M25.263,0H54.737A25.263,25.263,0,0,1,80,25.263V54.737A25.263,25.263,0,0,1,54.737,80H25.263A25.263,25.263,0,0,1,0,54.737V25.263A25.263,25.263,0,0,1,25.263,0Z" stroke="none"/>
      <path d="M 25.26315689086914 0.9999923706054688 C 21.98720932006836 0.9999923706054688 18.80978775024414 1.641372680664062 15.81914520263672 2.906303405761719 C 12.93002319335938 4.1282958984375 10.33512115478516 5.877899169921875 8.106513977050781 8.10650634765625 C 5.877899169921875 10.33512115478516 4.128303527832031 12.93001556396484 2.90631103515625 15.81913757324219 C 1.641380310058594 18.80978393554688 1 21.98720550537109 1 25.26315307617188 L 1 54.73681640625 C 1 58.01276397705078 1.641380310058594 61.190185546875 2.90631103515625 64.18083190917969 C 4.128303527832031 67.06995391845703 5.877899169921875 69.66484832763672 8.106513977050781 71.89346313476562 C 10.33512115478516 74.1220703125 12.93002319335938 75.87167358398438 15.81914520263672 77.09366607666016 C 18.80978775024414 78.35859680175781 21.98720932006836 78.99997711181641 25.26315689086914 78.99997711181641 L 54.73684692382812 78.99997711181641 C 58.01278686523438 78.99997711181641 61.19022369384766 78.35859680175781 64.18085479736328 77.09366607666016 C 67.06997680664062 75.87167358398438 69.66487884521484 74.1220703125 71.89348602294922 71.89346313476562 C 74.12210083007812 69.66484832763672 75.87169647216797 67.06995391845703 77.09368896484375 64.18083190917969 C 78.35861968994141 61.190185546875 79 58.01276397705078 79 54.73681640625 L 79 25.26315307617188 C 79 21.98720550537109 78.35861968994141 18.80978393554688 77.09368896484375 15.81913757324219 C 75.87169647216797 12.93001556396484 74.12210083007812 10.33512115478516 71.89348602294922 8.10650634765625 C 69.66487884521484 5.877899169921875 67.06997680664062 4.1282958984375 64.18085479736328 2.906303405761719 C 61.19022369384766 1.641372680664062 58.01278686523438 0.9999923706054688 54.73684692382812 0.9999923706054688 L 25.26315689086914 0.9999923706054688 M 25.26315689086914 -7.62939453125e-06 L 54.73684692382812 -7.62939453125e-06 C 68.68930816650391 -7.62939453125e-06 80 11.31069946289062 80 25.26315307617188 L 80 54.73681640625 C 80 68.68927001953125 68.68930816650391 79.99997711181641 54.73684692382812 79.99997711181641 L 25.26315689086914 79.99997711181641 C 11.31069946289062 79.99997711181641 0 68.68927001953125 0 54.73681640625 L 0 25.26315307617188 C 0 11.31069946289062 11.31069946289062 -7.62939453125e-06 25.26315689086914 -7.62939453125e-06 Z" stroke="none" fill="#e6e6e6"/>
    </g>
    <g id="backArrow" transform="translate(23.652 28.627)">
      <rect id="backArrow_Background_" data-name="backArrow (Background)" width="32.696" height="22.745" transform="translate(32.696 22.745) rotate(-180)" fill="none"/>
      <path id="Vector" d="M32.147,12.673,22.39,22.211a1.891,1.891,0,0,1-2.641-.006,1.811,1.811,0,0,1,.006-2.594l6.551-6.4H1.867a1.835,1.835,0,1,1,0-3.669H26.306l-6.551-6.4A1.811,1.811,0,0,1,19.749.54,1.891,1.891,0,0,1,22.39.534l9.757,9.538,0,0a1.813,1.813,0,0,1,0,2.6Z" transform="translate(32.696 22.745) rotate(-180)" fill="#242d38"/>
      <path id="Vector-2" data-name="Vector" d="M32.147,12.673,22.39,22.211a1.891,1.891,0,0,1-2.641-.006,1.811,1.811,0,0,1,.006-2.594l6.551-6.4H1.867a1.835,1.835,0,1,1,0-3.669H26.306l-6.551-6.4A1.811,1.811,0,0,1,19.749.54,1.891,1.891,0,0,1,22.39.534l9.757,9.538,0,0a1.813,1.813,0,0,1,0,2.6Z" transform="translate(32.696 22.745) rotate(-180)" fill="#242d38"/>
    </g>
  </g>
</svg>
